<svg xmlns="http://www.w3.org/2000/svg" width="1200" height="650" viewBox="0 0 1200 650">
  <defs>
    <marker id="arrow" markerWidth="10" markerHeight="10" refX="8" refY="3" orient="auto">
      <path d="M0,0 L8,3 L0,6 Z" fill="#374151"/>
    </marker>
    <style>
      .box { fill: #ffffff; stroke: #374151; stroke-width: 2; rx: 10; ry: 10; }
      .label { font-family: Arial, sans-serif; font-size: 18px; fill: #111827; }
      .small { font-size: 15px; fill: #374151; }
      .arrow { stroke: #374151; stroke-width: 2.2; fill: none; marker-end: url(#arrow); }
      .title { font-family: Arial, sans-serif; font-size: 22px; font-weight: 700; fill: #111827; }
    </style>
  </defs>

  <text x="30" y="32" class="title">Mô hình nghiệp vụ HRM</text>

  <rect x="40" y="80" width="170" height="58" class="box"/>
  <text x="55" y="116" class="label">Nhân viên vào ca</text>

  <rect x="250" y="80" width="210" height="58" class="box"/>
  <text x="268" y="116" class="label">Chấm công trên Web</text>

  <rect x="500" y="80" width="220" height="58" class="box"/>
  <text x="520" y="116" class="label">Hệ thống ghi nhận</text>

  <rect x="770" y="55" width="170" height="58" class="box"/>
  <text x="790" y="91" class="label">Lưu lịch sử công</text>

  <rect x="770" y="135" width="170" height="58" class="box"/>
  <text x="784" y="171" class="label">Thông báo lỗi</text>

  <rect x="40" y="230" width="190" height="58" class="box"/>
  <text x="52" y="266" class="label">Nhân viên gửi phép</text>

  <rect x="280" y="230" width="210" height="58" class="box"/>
  <text x="296" y="266" class="label">Gửi thông báo Manager</text>

  <rect x="530" y="230" width="190" height="58" class="box"/>
  <text x="555" y="266" class="label">Manager duyệt?</text>

  <rect x="770" y="210" width="200" height="58" class="box"/>
  <text x="786" y="246" class="label">Trừ phép &amp; cập nhật</text>

  <rect x="770" y="290" width="200" height="58" class="box"/>
  <text x="783" y="326" class="label">Từ chối kèm lý do</text>

  <rect x="40" y="390" width="180" height="58" class="box"/>
  <text x="65" y="426" class="label">Phòng HR cập nhật</text>

  <rect x="255" y="390" width="210" height="58" class="box"/>
  <text x="270" y="426" class="label">Tổng hợp công cuối tháng</text>

  <rect x="505" y="390" width="210" height="58" class="box"/>
  <text x="548" y="426" class="label">Tạo bảng lương</text>

  <rect x="770" y="390" width="190" height="58" class="box"/>
  <text x="792" y="426" class="label">HR kiểm tra</text>

  <rect x="770" y="475" width="190" height="58" class="box"/>
  <text x="782" y="511" class="label">Gửi phiếu lương</text>

  <line x1="210" y1="109" x2="250" y2="109" class="arrow"/>
  <line x1="460" y1="109" x2="500" y2="109" class="arrow"/>
  <line x1="720" y1="109" x2="770" y2="84" class="arrow"/>
  <line x1="720" y1="109" x2="770" y2="164" class="arrow"/>
  <line x1="230" y1="259" x2="280" y2="259" class="arrow"/>
  <line x1="490" y1="259" x2="530" y2="259" class="arrow"/>
  <line x1="625" y1="288" x2="625" y2="390" class="arrow"/>
  <line x1="720" y1="259" x2="770" y2="239" class="arrow"/>
  <line x1="720" y1="259" x2="770" y2="319" class="arrow"/>
  <line x1="220" y1="419" x2="255" y2="419" class="arrow"/>
  <line x1="465" y1="419" x2="505" y2="419" class="arrow"/>
  <line x1="715" y1="419" x2="770" y2="419" class="arrow"/>
  <line x1="865" y1="448" x2="865" y2="475" class="arrow"/>

  <text x="30" y="595" class="small">Luồng chính: chấm công -> nghỉ phép -> tổng hợp công -> tạo bảng lương -> phê duyệt/gửi kết quả.</text>
</svg>
